,
  Hottest scene tracker on the net !!!   http://www.scenetime.com
 
         Please seed back after your download is completed

           Credit goes  to all seeders and  http://www.scenetime.com
 



...................................NFO:.................................................*******************************************************************************
                  Ivansxtc.2000.576p.DVDRip.AC3.X264-BARC0DE
*******************************************************************************

-------------------------------------------------------------------------------
                              General Information
-------------------------------------------------------------------------------
Type.................: Movie
Name.................: Ivansxtc 
Movie Information....: http://www.imdb.com/title/tt0238321/
Genre................: Drama
-------------------------------------------------------------------------------
                                    PLOT
-------------------------------------------------------------------------------
Ivan Beckman, Hollywood's most sought after talent agent, the darling and crown 
prince of La-La Land is dead. How and why did it happen? Was it drugs, murder or 
excess, or perhaps something altogether more mundane? We begin with an ending 
and then catapult back a number of days to the apex of Ivan's brilliant career 
as he bags international megastar Don West onto his company's books, and then 
charts the highs, lows (and they are so very low) and extreme excesses of his 
final days.  

-------------------------------------------------------------------------------
                                    CAST
-------------------------------------------------------------------------------
Danny Huston 	... 	Ivan Beckman 
Peter Weller 	... 	Don West 
James Merendino 	... 	Danny McTeague 
Adam Krentzman 	... 	Barry Oaks 
Lisa Enos 	... 	Charlotte White 
Alison Taylor 	... 	Nurse Jackie 
Joanne Duckman 	... 	Marcia Beckman 
Robert Graham 	... 	Sid Beckman 
Caroleen Feeney 	... 	Rosemary Kramer 
Sarah Danielle Madison 	... 	Naomi (as Sarah Goldberg) 
Morgan Vukovic 	... 	Lucy Lawrence 
Jay Lavender 	... 	Phil 
Carol Rose 	... 	Judy Tarzana 
Steve Dickman 	... 	Melvin 
Wendy Rhoads 	... 	Missy

-------------------------------------------------------------------------------
                                    MEDiA iNFO
-------------------------------------------------------------------------------

General
Complete name                    : Ivansxtc.2000.576p.DVDRip.AC3.X264-BARC0DE.mkv
Format                           : Matroska
File size                        : 1.44 GiB
Duration                         : 1h 28mn
Overall bit rate                 : 2 325 Kbps

Video
ID                               : 1
Format                           : AVC
Format/Info                      : Advanced Video Codec
Format profile                   : Main@L3.0
Format settings, CABAC           : No
Format settings, ReFrames        : 2 frames
Muxing mode                      : Container profile=Unknown@3.0
Codec ID                         : V_MPEG4/ISO/AVC
Duration                         : 1h 28mn
Bit rate                         : 2 126 Kbps
Width                            : 718 pixels
Height                           : 576 pixels
Display aspect ratio             : 16:9
Frame rate                       : 25.000 fps
Color space                      : YUV
Chroma subsampling               : 4:2:0
Bit depth                        : 8 bits
Scan type                        : Progressive
Bits/(Pixel*Frame)               : 0.206
Stream size                      : 1.28 GiB (88%)
Writing library                  : x264 core 79


Audio
ID                               : 2
Format                           : AC-3
Format/Info                      : Audio Coding 3
Mode extension                   : CM (complete main)
Codec ID                         : A_AC3
Duration                         : 1h 28mn
Bit rate mode                    : Constant
Bit rate                         : 224 Kbps
Channel(s)                       : 2 channels
Channel positions                : Front: L R
Sampling rate                    : 48.0 KHz
Stream size                      : 142 MiB (10%)
Language                         : English